<?xml version="1.0" encoding="utf-8"?>
<!-- Generator: Adobe Illustrator 24.2.1, SVG Export Plug-In . SVG Version: 6.00 Build 0)  -->
<svg version="1.1" id="Layer_1" xmlns="http://www.w3.org/2000/svg" xmlns:xlink="http://www.w3.org/1999/xlink" x="0px" y="0px"
	 viewBox="0 0 446.79 111.21" style="enable-background:new 0 0 446.79 111.21;" xml:space="preserve">
<style type="text/css">
	.st0{fill:#E7BA22;}
	.st1{fill:#E9BB24;}
</style>
<g>
	<g>
		<g>
			<path class="st0" d="M31.13,11.96l-1.63-5.28l3.82-1.17l0.19,0.62L30.4,7.09l0.5,1.62l2.92-0.9l0.19,0.62l-2.92,0.9l0.55,1.8
				l3.24-1l0.19,0.62L31.13,11.96z"/>
			<path class="st0" d="M35.34,8.85L36,8.66c0.08,0.26,0.2,0.47,0.35,0.62c0.15,0.15,0.36,0.26,0.63,0.31
				c0.27,0.06,0.56,0.06,0.86,0c0.27-0.05,0.51-0.14,0.7-0.26c0.19-0.12,0.33-0.26,0.4-0.43c0.07-0.16,0.1-0.33,0.06-0.49
				C38.98,8.24,38.91,8.1,38.78,8c-0.12-0.11-0.31-0.18-0.55-0.23c-0.16-0.03-0.5-0.05-1.02-0.08c-0.52-0.02-0.89-0.07-1.11-0.14
				c-0.29-0.08-0.51-0.21-0.68-0.39c-0.17-0.18-0.27-0.39-0.32-0.64c-0.05-0.27-0.03-0.54,0.08-0.81c0.11-0.27,0.3-0.49,0.58-0.67
				c0.28-0.18,0.59-0.31,0.96-0.38c0.4-0.08,0.77-0.08,1.1-0.01c0.33,0.07,0.61,0.21,0.82,0.43c0.21,0.22,0.36,0.49,0.43,0.8
				L38.4,6.07c-0.1-0.34-0.28-0.57-0.53-0.7c-0.25-0.13-0.58-0.16-1-0.08c-0.43,0.08-0.74,0.23-0.9,0.42
				c-0.17,0.2-0.23,0.41-0.19,0.63c0.04,0.2,0.14,0.34,0.3,0.44c0.16,0.1,0.55,0.16,1.16,0.18c0.61,0.02,1.03,0.05,1.27,0.11
				c0.34,0.08,0.61,0.22,0.81,0.42c0.19,0.19,0.32,0.44,0.38,0.73c0.06,0.29,0.03,0.58-0.09,0.87c-0.12,0.29-0.31,0.53-0.6,0.73
				c-0.28,0.2-0.62,0.34-1,0.42c-0.49,0.1-0.92,0.1-1.28,0.03c-0.36-0.08-0.66-0.24-0.91-0.49C35.58,9.52,35.42,9.21,35.34,8.85z"/>
			<path class="st0" d="M42.26,9.53l-0.42-4.86l-1.81,0.16l-0.06-0.65l4.36-0.37l0.06,0.65l-1.82,0.16l0.42,4.86L42.26,9.53z"/>
			<path class="st0" d="M44.73,9.37L44.71,8.6l0.77-0.02l0.02,0.77L44.73,9.37z"/>
			<path class="st0" d="M51,9.61l-0.67-0.07l0.43-4.3c-0.18,0.14-0.41,0.27-0.69,0.4c-0.28,0.13-0.53,0.22-0.75,0.28l0.07-0.65
				c0.39-0.14,0.75-0.32,1.05-0.55s0.53-0.45,0.67-0.68l0.44,0.04L51,9.61z"/>
			<path class="st0" d="M53.62,5.11l0.13-0.64l3.5,0.73l-0.11,0.52c-0.42,0.29-0.86,0.71-1.33,1.25c-0.46,0.54-0.86,1.11-1.18,1.71
				c-0.23,0.43-0.41,0.9-0.56,1.44L53.4,9.97c0.1-0.42,0.29-0.92,0.57-1.49s0.64-1.1,1.05-1.6s0.83-0.9,1.25-1.22L53.62,5.11z"/>
			<path class="st0" d="M61.3,7.79l-0.66-0.16c0.02-0.27,0-0.48-0.06-0.63c-0.11-0.24-0.3-0.4-0.56-0.49c-0.21-0.07-0.41-0.07-0.6,0
				c-0.25,0.08-0.48,0.25-0.69,0.49c-0.21,0.25-0.4,0.63-0.58,1.16c0.23-0.19,0.48-0.3,0.74-0.34c0.26-0.04,0.52-0.02,0.76,0.06
				c0.43,0.14,0.75,0.42,0.95,0.83c0.2,0.41,0.22,0.87,0.05,1.38c-0.11,0.33-0.28,0.61-0.51,0.85c-0.23,0.24-0.5,0.39-0.8,0.46
				c-0.3,0.07-0.6,0.05-0.92-0.05c-0.54-0.17-0.91-0.51-1.12-1.02c-0.21-0.51-0.17-1.21,0.12-2.12c0.33-1.02,0.76-1.69,1.28-2.03
				c0.46-0.29,0.96-0.35,1.52-0.17c0.41,0.13,0.71,0.36,0.9,0.68C61.33,6.99,61.38,7.37,61.3,7.79z M57.93,9.2
				c-0.07,0.22-0.09,0.45-0.07,0.68c0.03,0.23,0.11,0.43,0.25,0.59c0.14,0.16,0.3,0.27,0.48,0.33c0.27,0.09,0.54,0.05,0.81-0.1
				c0.27-0.16,0.46-0.42,0.58-0.8c0.12-0.36,0.11-0.68-0.01-0.95c-0.13-0.27-0.34-0.46-0.63-0.55c-0.29-0.09-0.57-0.07-0.84,0.07
				C58.23,8.62,58.04,8.86,57.93,9.2z"/>
			<path class="st0" d="M62.93,13.02l-0.62-0.28l1.76-3.95c-0.21,0.08-0.47,0.13-0.78,0.16C62.99,8.99,62.73,9,62.5,8.99l0.27-0.6
				c0.42-0.01,0.81-0.07,1.17-0.19c0.36-0.12,0.65-0.26,0.85-0.43l0.4,0.18L62.93,13.02z"/>
		</g>
		<g>
			<path class="st0" d="M39.1,99.38c-0.92,0-1.85-0.09-2.78-0.27c-6.01-1.18-10.8-6.18-12.14-12.59c-3.97-0.81-7.36-3.11-9.62-6.55
				c-3.43-5.25-3.43-12.31-0.05-17.82c-2.28-3.5-3.13-7.65-2.4-11.76c1.11-6.27,5.88-11.27,12-12.68c0.76-4.16,2.96-7.71,6.25-10.07
				c5.03-3.61,11.78-3.62,17.07-0.1c3.33-2.34,7.38-3.24,11.26-2.48c6.01,1.18,10.8,6.18,12.13,12.59c3.97,0.8,7.37,3.11,9.62,6.55
				c3.44,5.25,3.43,12.31,0.05,17.82c2.28,3.51,3.13,7.65,2.4,11.76c-1.12,6.27-5.89,11.26-12,12.68
				c-0.76,4.16-2.96,7.71-6.25,10.07c-5.03,3.62-11.78,3.63-17.07,0.1C45.02,98.43,42.1,99.37,39.1,99.38z M38.88,27.29
				c-2.5,0-4.96,0.77-7.11,2.31c-2.97,2.13-4.88,5.43-5.4,9.29l-0.12,0.88l-0.87,0.15c-5.53,0.95-9.9,5.33-10.89,10.9
				c-0.67,3.74,0.2,7.5,2.45,10.61l0.5,0.69l-0.48,0.7c-3.28,4.81-3.43,11.17-0.38,15.84c2.03,3.1,5.16,5.1,8.81,5.63l0.88,0.13
				l0.14,0.88c0.92,5.81,5.08,10.41,10.37,11.45c3.52,0.69,7.08-0.22,10.02-2.55l0.73-0.58l0.75,0.56
				c4.54,3.41,10.55,3.56,14.96,0.39c2.97-2.13,4.89-5.43,5.4-9.29l0.12-0.88l0.87-0.15c5.53-0.96,9.9-5.33,10.89-10.89
				c0.67-3.73-0.2-7.5-2.45-10.61l-0.5-0.69l0.48-0.7c3.28-4.8,3.43-11.17,0.38-15.84c-2.03-3.1-5.16-5.1-8.81-5.63l-0.88-0.13
				l-0.14-0.88c-0.92-5.81-5.09-10.41-10.37-11.45c-3.52-0.69-7.08,0.22-10.02,2.55l-0.73,0.58l-0.74-0.56
				C44.33,28.19,41.59,27.29,38.88,27.29z"/>
			<path class="st0" d="M47.6,107.41c-5.8,0-11.42-3.1-14.85-8.36c-4.62,1-9.27,0.09-13.16-2.6c-5.92-4.08-8.87-11.7-7.49-19.18
				c-3.95-2.71-6.62-6.78-7.56-11.53c-1.42-7.23,1.64-14.79,7.65-19.07c-0.97-4.83-0.12-9.69,2.44-13.77
				c3.89-6.2,11.17-9.29,18.33-7.88c2.59-4.12,6.47-6.92,11.03-7.9c6.94-1.5,14.18,1.7,18.28,8c4.57-0.98,9.33-0.05,13.16,2.59
				c5.92,4.09,8.87,11.71,7.49,19.19c3.95,2.71,6.62,6.78,7.55,11.53c1.42,7.24-1.64,14.79-7.65,19.07
				c0.97,4.84,0.12,9.7-2.44,13.77c-3.89,6.2-11.17,9.29-18.33,7.88c-2.59,4.12-6.47,6.91-11.03,7.9
				C49.89,107.29,48.74,107.41,47.6,107.41z M33.88,96.26l0.47,0.79c3.47,5.9,9.97,8.97,16.16,7.63c4.16-0.9,7.67-3.56,9.9-7.5
				l0.45-0.8l0.89,0.22c6.43,1.61,13.09-1.06,16.58-6.62c2.36-3.75,3.05-8.27,1.96-12.74l-0.2-0.83l0.72-0.47
				c5.65-3.65,8.58-10.5,7.29-17.05c-0.86-4.37-3.41-8.07-7.17-10.42l-0.73-0.45l0.19-0.84c1.54-6.78-1-13.82-6.34-17.5
				c-3.55-2.44-7.83-3.16-12.04-2.03l-0.89,0.24l-0.47-0.79c-3.47-5.9-9.97-8.97-16.17-7.63c-4.15,0.9-7.66,3.57-9.9,7.51l-0.45,0.8
				l-0.89-0.22c-6.42-1.6-13.09,1.06-16.58,6.62c-2.35,3.75-3.05,8.27-1.96,12.74l0.2,0.83l-0.72,0.47
				c-5.65,3.65-8.58,10.51-7.3,17.05c0.86,4.37,3.41,8.07,7.17,10.41l0.73,0.45l-0.19,0.84c-1.54,6.79,1,13.82,6.34,17.49
				c3.55,2.45,7.82,3.17,12.04,2.04L33.88,96.26z"/>
			<path class="st0" d="M39.61,49.7c-0.6-0.63-1.17-1.14-1.73-1.57c0.21,0.68,0.51,1.41,0.92,2.2C39.07,50.11,39.33,49.9,39.61,49.7
				"/>
			<path class="st0" d="M55.84,50.25c0.44-0.84,0.77-1.62,1-2.35c-0.65,0.4-1.32,0.92-2,1.59C55.19,49.73,55.52,49.99,55.84,50.25"
				/>
			<path class="st0" d="M33.66,61.54c0-4.54,2.01-8.58,5.14-11.21c-0.4-0.79-0.71-1.52-0.92-2.2c-4.41-3.37-7.39-0.71-8.89,1.13
				c-3.87,4.74-5.65,3.91-5.65,3.91s1.56,2.87,2.52,8.91c0.36,2.27,1.44,5.37,6.37,5.1c0.46-0.32,0.96-0.64,1.54-0.96
				c-0.57,0.31-1.08,0.63-1.54,0.96c0.72-0.04,1.52-0.15,2.41-0.35C34.01,65.2,33.66,63.41,33.66,61.54"/>
			<path class="st0" d="M47.37,47.17c2.75,0,5.32,0.86,7.47,2.33c0.69-0.66,1.36-1.19,2-1.59c1.65-5.12-1.51-7.33-3.57-8.33
				c-5.4-2.61-5.75-4.48-5.75-4.48s-0.34,1.86-5.62,4.48c-2.04,1.01-5.67,3.26-4.01,8.55c0.55,0.42,1.13,0.94,1.73,1.57
				C41.82,48.11,44.49,47.17,47.37,47.17"/>
			<path class="st0" d="M47.72,75.9c-0.09,1.2-0.26,2.23-0.49,3.1c1.51,5.27,5.34,5.12,7.58,4.66c5.84-1.21,7.17,0.09,7.17,0.09
				s-0.77-1.71,2-7.04c1.03-1.98,2.43-6.24-1.3-9.57c-0.76-0.02-1.61-0.14-2.55-0.36C58.18,72.01,53.38,75.75,47.72,75.9"/>
			<path class="st0" d="M66.1,49.87c-1.43-1.75-4.83-4.71-9.26-1.96c-0.24,0.72-0.56,1.5-1,2.35c3.19,2.63,5.24,6.7,5.24,11.29
				c0,1.42-0.2,2.79-0.57,4.09c0.86,0.47,1.58,0.97,2.17,1.5c4.83,0.13,5.99-3.52,6.36-5.8c1-6.15,2.62-6.99,2.62-6.99
				S69.87,54.49,66.1,49.87"/>
			<path class="st0" d="M60.14,66.77c0.94,0.22,1.8,0.34,2.55,0.36c-0.59-0.52-1.31-1.03-2.17-1.5
				C60.41,66.02,60.28,66.4,60.14,66.77"/>
			<path class="st0" d="M47.37,75.92c-5.79,0-10.73-3.76-12.74-9.08c-0.89,0.2-1.69,0.31-2.41,0.35c-4.97,3.51-3.39,7.46-2.13,9.58
				c3.13,5.26,1.84,6.8,1.84,6.8s3.07-0.71,8.81,0.1c2.13,0.3,5.22,0.16,6.49-4.66c-0.22-0.78-0.39-1.67-0.5-2.7
				c0.11,1.03,0.28,1.92,0.5,2.7c0.23-0.87,0.4-1.9,0.49-3.1C47.61,75.9,47.49,75.92,47.37,75.92"/>
			<path class="st0" d="M53.54,60.28c-1.86,0.8-4.19-0.64-4.19-0.64s0.69-2.74,2.55-3.54c1.86-0.8,4.19,0.64,4.19,0.64
				S55.4,59.48,53.54,60.28"/>
			<path class="st0" d="M53.54,60.28c-1.86,0.8-4.19-0.64-4.19-0.64s0.69-2.74,2.55-3.54c1.86-0.8,4.19,0.64,4.19,0.64
				S55.4,59.48,53.54,60.28z"/>
			<path class="st0" d="M52.53,65.33C50.67,64.51,50,61.77,50,61.77s2.33-1.43,4.19-0.62c1.86,0.81,2.53,3.56,2.53,3.56
				S54.38,66.14,52.53,65.33"/>
			<path class="st0" d="M52.53,65.33C50.67,64.51,50,61.77,50,61.77s2.33-1.43,4.19-0.62c1.86,0.81,2.53,3.56,2.53,3.56
				S54.38,66.14,52.53,65.33z"/>
			<path class="st0" d="M48.41,68.14c-0.77-1.95,0.61-4.39,0.61-4.39s2.61,0.72,3.38,2.67c0.76,1.95-0.61,4.39-0.61,4.39
				S49.17,70.09,48.41,68.14"/>
			<path class="st0" d="M48.41,68.14c-0.77-1.95,0.61-4.39,0.61-4.39s2.61,0.72,3.38,2.67c0.76,1.95-0.61,4.39-0.61,4.39
				S49.17,70.09,48.41,68.14z"/>
			<path class="st0" d="M43.6,67.08c0.77-1.95,3.39-2.65,3.39-2.65s1.36,2.45,0.59,4.39c-0.78,1.95-3.39,2.65-3.39,2.65
				S42.82,69.02,43.6,67.08"/>
			<path class="st0" d="M43.6,67.08c0.77-1.95,3.39-2.65,3.39-2.65s1.36,2.45,0.59,4.39c-0.78,1.95-3.39,2.65-3.39,2.65
				S42.82,69.02,43.6,67.08z"/>
			<path class="st0" d="M40.91,62.76c1.86-0.8,4.19,0.64,4.19,0.64s-0.69,2.74-2.55,3.54c-1.86,0.8-4.19-0.64-4.19-0.64
				S39.05,63.56,40.91,62.76"/>
			<path class="st0" d="M40.91,62.76c1.86-0.8,4.19,0.64,4.19,0.64s-0.69,2.74-2.55,3.54c-1.86,0.8-4.19-0.64-4.19-0.64
				S39.05,63.56,40.91,62.76z"/>
			<path class="st0" d="M41.92,57.72c1.86,0.81,2.53,3.56,2.53,3.56s-2.34,1.43-4.19,0.61c-1.85-0.81-2.53-3.55-2.53-3.55
				S40.07,56.91,41.92,57.72"/>
			<path class="st0" d="M41.92,57.72c1.86,0.81,2.53,3.56,2.53,3.56s-2.34,1.43-4.19,0.61c-1.85-0.81-2.53-3.55-2.53-3.55
				S40.07,56.91,41.92,57.72z"/>
			<path class="st0" d="M46.04,54.9c0.77,1.95-0.61,4.39-0.61,4.39s-2.61-0.72-3.38-2.67c-0.76-1.95,0.61-4.39,0.61-4.39
				S45.28,52.96,46.04,54.9"/>
			<path class="st0" d="M46.04,54.9c0.77,1.95-0.61,4.39-0.61,4.39s-2.61-0.72-3.38-2.67c-0.76-1.95,0.61-4.39,0.61-4.39
				S45.28,52.96,46.04,54.9z"/>
			<path class="st0" d="M50.86,55.97c-0.78,1.94-3.4,2.65-3.4,2.65s-1.36-2.45-0.59-4.39c0.78-1.95,3.39-2.65,3.39-2.65
				S51.63,54.02,50.86,55.97"/>
			<path class="st0" d="M50.86,55.97c-0.78,1.94-3.4,2.65-3.4,2.65s-1.36-2.45-0.59-4.39c0.78-1.95,3.39-2.65,3.39-2.65
				S51.63,54.02,50.86,55.97z"/>
		</g>
	</g>
	<g>
		<g>
			<path class="st0" d="M123.61,42.65c0-1.61-0.22-2.94-0.67-3.99c-0.45-1.05-1.08-1.84-1.9-2.36c-0.82-0.52-1.79-0.77-2.92-0.74
				h-2.14v20.93c0,0.8-0.02,1.58-0.04,2.32c-0.03,0.74-0.07,1.31-0.13,1.7c0.5-0.06,1.15-0.1,1.94-0.11
				c0.79-0.01,1.33-0.02,1.63-0.02v3.44h-13.03v-2.95c0.68-0.03,1.26-0.12,1.72-0.27c0.46-0.15,0.82-0.49,1.07-1.03
				s0.38-1.4,0.38-2.59V35.6h-2.05c-1.7,0.03-3.03,0.61-4.02,1.74c-0.98,1.13-1.47,2.9-1.47,5.31h-2.95l0.22-10.09h27.04l0.27,10.09
				H123.61z"/>
			<path class="st0" d="M131.73,63.8v-2.95c0.68-0.03,1.26-0.12,1.72-0.27s0.82-0.49,1.07-1.03c0.25-0.54,0.38-1.4,0.38-2.59V39.88
				c0-0.8,0.02-1.58,0.07-2.32c0.04-0.74,0.08-1.31,0.11-1.7c-0.48,0.03-1.07,0.05-1.78,0.07c-0.71,0.02-1.23,0.04-1.56,0.07v-3.44
				h12.81v2.95c-0.65,0.03-1.22,0.12-1.7,0.27c-0.48,0.15-0.84,0.48-1.09,1c-0.25,0.52-0.38,1.39-0.38,2.61v6.96h12.27v-6.47
				c0-0.8,0.01-1.58,0.04-2.32c0.03-0.74,0.07-1.31,0.13-1.7c-0.48,0.03-1.07,0.05-1.78,0.07c-0.71,0.02-1.23,0.04-1.56,0.07v-3.44
				h12.81v2.95c-0.66,0.03-1.22,0.12-1.7,0.27c-0.48,0.15-0.84,0.48-1.09,1c-0.25,0.52-0.38,1.39-0.38,2.61v17.09
				c0,0.8-0.01,1.58-0.04,2.32c-0.03,0.74-0.08,1.31-0.13,1.7c0.48-0.06,1.08-0.1,1.81-0.11c0.73-0.01,1.24-0.02,1.54-0.02v3.44
				h-12.81v-2.95c0.68-0.03,1.26-0.12,1.72-0.27s0.82-0.49,1.07-1.03c0.25-0.54,0.38-1.4,0.38-2.59v-7.23l-12.27,0.13v6.61
				c0,0.8-0.01,1.58-0.04,2.32c-0.03,0.74-0.07,1.31-0.13,1.7c0.48-0.06,1.08-0.1,1.81-0.11c0.73-0.01,1.24-0.02,1.54-0.02v3.44
				H131.73z"/>
			<path class="st0" d="M185.1,53.04c0-1.25-0.19-2.15-0.58-2.7c-0.39-0.55-0.92-0.9-1.58-1.05c-0.67-0.15-1.41-0.21-2.21-0.18
				l-1.16,0.05v7.32c0,0.8-0.01,1.56-0.04,2.28c-0.03,0.71-0.07,1.26-0.13,1.65h5.98c0.89,0,1.76-0.2,2.59-0.6
				c0.83-0.4,1.52-1.07,2.05-2.01c0.54-0.94,0.8-2.21,0.8-3.82h2.9l-0.22,9.82h-23.56v-2.95c0.68-0.03,1.26-0.12,1.72-0.27
				c0.46-0.15,0.82-0.49,1.07-1.03c0.25-0.54,0.38-1.4,0.38-2.59V39.88c0-0.8,0.02-1.58,0.07-2.32c0.04-0.74,0.08-1.31,0.11-1.7
				c-0.48,0.03-1.07,0.05-1.78,0.07c-0.71,0.02-1.23,0.04-1.56,0.07v-3.44h22.31l0.27,8.66h-2.95c0-1.64-0.28-2.87-0.85-3.7
				s-1.26-1.39-2.1-1.67c-0.83-0.28-1.65-0.41-2.45-0.38l-1.61,0.05c-0.62,0-1.16,0.08-1.61,0.25c-0.45,0.16-0.79,0.52-1.03,1.07
				c-0.24,0.55-0.36,1.41-0.36,2.57v6.69h5.22l-0.18-3.88h3.44v10.84H185.1z"/>
			<path class="st0" d="M209.6,64.07l-7.94-24.05c-0.3-0.86-0.53-1.65-0.69-2.37c-0.16-0.71-0.25-1.31-0.25-1.78
				c-0.57,0.03-1.06,0.05-1.5,0.07c-0.43,0.02-0.84,0.04-1.23,0.07v-3.44h13.16v2.95c-1.1-0.03-1.91,0.18-2.43,0.62
				c-0.52,0.45-0.59,1.35-0.2,2.72c0.45,1.7,0.89,3.39,1.34,5.09c0.44,1.7,0.89,3.39,1.34,5.09c0.27,1.01,0.51,1.96,0.74,2.86
				c0.22,0.89,0.47,2.05,0.74,3.48h0.05c0.12-0.42,0.3-1.06,0.53-1.92c0.24-0.86,0.5-1.79,0.78-2.79c0.28-1,0.53-1.9,0.76-2.72
				c0.22-0.82,0.38-1.39,0.47-1.72c0.48-1.52,0.94-3.03,1.41-4.55c0.46-1.52,0.92-3.03,1.38-4.55c0.46-1.52,0.92-3.04,1.36-4.55
				h4.02c0.42,1.37,0.84,2.74,1.27,4.11c0.43,1.37,0.86,2.74,1.27,4.11c0.42,1.37,0.84,2.74,1.27,4.11
				c0.43,1.37,0.86,2.74,1.27,4.11c0.33,1.01,0.62,2.06,0.87,3.15c0.25,1.09,0.5,2.18,0.74,3.28h0.05c0.27-0.95,0.54-1.94,0.82-2.97
				c0.28-1.03,0.57-2.09,0.87-3.19c0.21-0.77,0.42-1.55,0.62-2.32c0.21-0.77,0.42-1.55,0.62-2.34c0.21-0.79,0.42-1.57,0.62-2.34
				c0.21-0.77,0.42-1.55,0.62-2.32c0.18-0.71,0.42-1.45,0.71-2.21c0.3-0.76,0.67-1.37,1.12-1.85c-0.48,0.03-1.09,0.05-1.83,0.07
				c-0.74,0.02-1.28,0.04-1.61,0.07v-3.44h10.04v2.95c-0.66,0.03-1.27,0.2-1.85,0.51c-0.58,0.31-1.11,0.81-1.59,1.5
				c-0.48,0.68-0.91,1.61-1.29,2.77c-1.19,3.96-2.4,7.92-3.62,11.87s-2.44,7.93-3.66,11.91h-3.97l-5.27-15.98
				c-0.39-1.16-0.71-2.3-0.96-3.41c-0.25-1.11-0.5-2.18-0.74-3.19c-0.15,1.01-0.33,1.99-0.54,2.92c-0.21,0.94-0.46,1.91-0.76,2.92
				l-5.09,16.73H209.6z"/>
			<path class="st0" d="M242,63.8v-3.08c0.83,0,1.5-0.24,2.01-0.71c0.51-0.48,0.93-1.1,1.27-1.87c0.34-0.77,0.68-1.61,1-2.5
				l8.7-23.88h3.12l9.51,24.32c0.18,0.45,0.42,1.12,0.71,2.03s0.48,1.7,0.54,2.39c0.5-0.06,0.99-0.1,1.45-0.11
				c0.46-0.01,0.84-0.02,1.14-0.02v3.44h-12v-2.95c0.83,0,1.41-0.17,1.72-0.51c0.31-0.34,0.45-0.81,0.42-1.41
				c-0.03-0.59-0.19-1.26-0.49-2.01l-0.89-2.45l-9.68,0.18l-0.71,2.1c-0.15,0.39-0.36,0.96-0.65,1.72c-0.28,0.76-0.54,1.39-0.78,1.9
				c0.48-0.06,1.05-0.1,1.72-0.11c0.67-0.01,1.15-0.02,1.45-0.02v3.57H242z M251.64,51.31h7.45l-2.05-5.58
				c-0.39-1.07-0.73-2.15-1.03-3.24s-0.52-2.04-0.67-2.88h-0.05c-0.12,0.51-0.3,1.26-0.54,2.28c-0.24,1.01-0.61,2.22-1.11,3.62
				L251.64,51.31z"/>
			<path class="st0" d="M308,42.56c-0.27-1.67-0.74-3.06-1.43-4.17s-1.55-1.96-2.61-2.52c-1.06-0.56-2.28-0.83-3.68-0.8
				c-1.28,0-2.4,0.36-3.37,1.07c-0.97,0.71-1.45,1.64-1.45,2.77c0,0.92,0.26,1.73,0.78,2.41c0.52,0.68,1.32,1.32,2.39,1.92
				c1.07,0.6,2.42,1.24,4.06,1.92c1.13,0.45,2.29,0.97,3.48,1.56c1.19,0.6,2.29,1.3,3.3,2.12c1.01,0.82,1.83,1.77,2.45,2.86
				c0.62,1.09,0.94,2.36,0.94,3.82c0,1.76-0.48,3.32-1.43,4.68c-0.95,1.37-2.28,2.43-3.99,3.19c-1.71,0.76-3.71,1.14-6,1.14
				c-1.19,0-2.48-0.19-3.86-0.56c-1.38-0.37-2.69-0.92-3.9-1.63l0.13,1.87h-3.44V53.76h2.95c0.42,2.5,1.38,4.38,2.88,5.65
				c1.5,1.27,3.3,1.9,5.38,1.9c1.07,0,2.01-0.19,2.81-0.58c0.8-0.38,1.43-0.9,1.87-1.54c0.45-0.64,0.67-1.33,0.67-2.07
				c0-1.04-0.36-1.9-1.09-2.59c-0.73-0.68-1.64-1.26-2.72-1.74c-1.09-0.48-2.19-0.94-3.32-1.38c-1.43-0.6-2.76-1.23-3.99-1.9
				c-1.23-0.67-2.31-1.43-3.24-2.3c-0.92-0.86-1.64-1.85-2.14-2.97c-0.51-1.11-0.76-2.4-0.76-3.86c0-0.92,0.18-1.88,0.54-2.88
				c0.36-1,0.94-1.92,1.74-2.77c0.8-0.85,1.87-1.54,3.21-2.08c1.34-0.54,2.99-0.8,4.95-0.8c1.19,0,2.49,0.18,3.9,0.53
				c1.41,0.36,2.63,0.89,3.64,1.61l-0.18-1.83h3.48v10.4H308z"/>
			<path class="st0" d="M341.92,42.65c0-1.61-0.22-2.94-0.67-3.99c-0.45-1.05-1.08-1.84-1.9-2.36c-0.82-0.52-1.79-0.77-2.92-0.74
				h-2.14v20.93c0,0.8-0.01,1.58-0.04,2.32c-0.03,0.74-0.08,1.31-0.13,1.7c0.5-0.06,1.15-0.1,1.94-0.11
				c0.79-0.01,1.33-0.02,1.63-0.02v3.44h-13.03v-2.95c0.68-0.03,1.26-0.12,1.72-0.27s0.82-0.49,1.07-1.03
				c0.25-0.54,0.38-1.4,0.38-2.59V35.6h-2.05c-1.7,0.03-3.03,0.61-4.02,1.74c-0.98,1.13-1.47,2.9-1.47,5.31h-2.95l0.22-10.09h27.04
				l0.27,10.09H341.92z"/>
			<path class="st0" d="M364.9,64.51c-2.83,0-5.23-0.48-7.21-1.43c-1.98-0.95-3.58-2.22-4.8-3.82c-1.22-1.59-2.11-3.36-2.68-5.29
				c-0.56-1.93-0.85-3.87-0.85-5.8c0-1.87,0.32-3.77,0.96-5.69c0.64-1.92,1.61-3.68,2.9-5.29c1.29-1.61,2.92-2.9,4.89-3.88
				c1.96-0.98,4.27-1.47,6.92-1.47c2.71,0,5.04,0.49,7.01,1.47c1.96,0.98,3.57,2.28,4.82,3.9c1.25,1.62,2.18,3.38,2.79,5.29
				c0.61,1.9,0.92,3.79,0.92,5.67c0,1.84-0.32,3.72-0.96,5.62c-0.64,1.9-1.61,3.67-2.9,5.29s-2.92,2.93-4.89,3.93
				S367.55,64.51,364.9,64.51z M365.39,61.26c1.55,0,2.84-0.38,3.88-1.14c1.04-0.76,1.87-1.75,2.5-2.97
				c0.62-1.22,1.07-2.55,1.34-3.99c0.27-1.44,0.4-2.85,0.4-4.22c0-2.05-0.18-3.93-0.54-5.62c-0.36-1.7-0.91-3.16-1.65-4.4
				c-0.74-1.23-1.69-2.19-2.83-2.86c-1.15-0.67-2.49-0.99-4.04-0.96c-1.52,0.03-2.8,0.44-3.84,1.23c-1.04,0.79-1.87,1.8-2.5,3.04
				c-0.62,1.23-1.07,2.58-1.34,4.04c-0.27,1.46-0.4,2.87-0.4,4.24c0,1.4,0.16,2.89,0.47,4.46c0.31,1.58,0.81,3.07,1.49,4.46
				c0.68,1.4,1.61,2.53,2.77,3.39C362.27,60.83,363.69,61.26,365.39,61.26z"/>
			<path class="st0" d="M386.01,63.8v-2.95c0.68-0.03,1.26-0.12,1.72-0.27c0.46-0.15,0.82-0.49,1.07-1.03
				c0.25-0.54,0.38-1.4,0.38-2.59V39.88c0-0.8,0.02-1.58,0.07-2.32c0.04-0.74,0.08-1.31,0.11-1.7c-0.48,0.03-1.07,0.05-1.78,0.07
				c-0.71,0.02-1.23,0.04-1.56,0.07v-3.44c2.11-0.03,4.22-0.05,6.34-0.05c2.11,0,4.22-0.01,6.34-0.04c2.62-0.03,4.89,0.27,6.83,0.89
				c1.93,0.62,3.42,1.64,4.46,3.03c1.04,1.4,1.53,3.29,1.47,5.67c-0.03,1.25-0.33,2.44-0.92,3.57c-0.58,1.13-1.44,2.13-2.59,2.99
				c-1.15,0.86-2.6,1.55-4.35,2.05c0.56,0.24,1.12,0.62,1.67,1.16s1.02,1.1,1.41,1.7l2.1,3.12c0.65,1.01,1.23,1.81,1.74,2.41
				c0.5,0.6,1.01,1.03,1.52,1.32c0.5,0.28,1.08,0.44,1.74,0.47v2.95h-7.36c-0.54-0.39-1.06-0.94-1.58-1.67
				c-0.52-0.73-1.08-1.57-1.67-2.52l-3.3-5.35c-0.39-0.6-0.72-1.1-1-1.52c-0.28-0.42-0.57-0.77-0.87-1.07c-0.48,0-0.88,0-1.2,0
				c-0.33,0-0.7,0-1.12,0v4.78c0,0.83-0.01,1.62-0.04,2.36c-0.03,0.74-0.07,1.31-0.13,1.7c0.33-0.03,0.74-0.05,1.25-0.07
				c0.5-0.02,1-0.03,1.49-0.05c0.49-0.01,0.84-0.02,1.05-0.02v3.44H386.01z M397.79,48.45c1.67,0,3.01-0.25,4.02-0.74
				c1.01-0.49,1.75-1.23,2.21-2.23c0.46-1,0.69-2.26,0.69-3.77c0-1.43-0.22-2.55-0.67-3.37c-0.45-0.82-1-1.43-1.67-1.83
				c-0.67-0.4-1.35-0.65-2.03-0.76c-0.68-0.1-1.25-0.16-1.7-0.16c-0.62,0-1.16,0.07-1.61,0.22c-0.45,0.15-0.79,0.48-1.03,0.98
				c-0.24,0.5-0.36,1.28-0.36,2.32v9.15c0.33,0.03,0.67,0.07,1.03,0.11C397.03,48.43,397.4,48.45,397.79,48.45z"/>
			<path class="st0" d="M433.98,53.04c0-1.25-0.19-2.15-0.58-2.7c-0.39-0.55-0.92-0.9-1.58-1.05c-0.67-0.15-1.41-0.21-2.21-0.18
				l-1.16,0.05v7.32c0,0.8-0.01,1.56-0.04,2.28c-0.03,0.71-0.07,1.26-0.13,1.65h5.98c0.89,0,1.76-0.2,2.59-0.6
				c0.83-0.4,1.52-1.07,2.05-2.01c0.54-0.94,0.8-2.21,0.8-3.82h2.9l-0.22,9.82h-23.56v-2.95c0.68-0.03,1.26-0.12,1.72-0.27
				s0.82-0.49,1.07-1.03c0.25-0.54,0.38-1.4,0.38-2.59V39.88c0-0.8,0.02-1.58,0.07-2.32c0.04-0.74,0.08-1.31,0.11-1.7
				c-0.48,0.03-1.07,0.05-1.78,0.07c-0.71,0.02-1.23,0.04-1.56,0.07v-3.44h22.31l0.27,8.66h-2.95c0-1.64-0.28-2.87-0.85-3.7
				s-1.26-1.39-2.1-1.67c-0.83-0.28-1.65-0.41-2.45-0.38l-1.61,0.05c-0.62,0-1.16,0.08-1.61,0.25c-0.45,0.16-0.79,0.52-1.03,1.07
				c-0.24,0.55-0.36,1.41-0.36,2.57v6.69h5.22l-0.18-3.88h3.44v10.84H433.98z"/>
		</g>
		<g>
			<path class="st1" d="M151.51,95.04l6.65-18.13h2.47l7.08,18.13h-2.61l-2.02-5.49h-7.24l-1.9,5.49H151.51z M156.5,87.59h5.87
				l-1.81-5.02c-0.55-1.53-0.96-2.78-1.23-3.76c-0.22,1.16-0.53,2.32-0.93,3.46L156.5,87.59z"/>
			<path class="st1" d="M171.4,95.04V76.9h7.67c1.54,0,2.71,0.16,3.52,0.49s1.44,0.9,1.92,1.73c0.48,0.82,0.72,1.74,0.72,2.73
				c0,1.29-0.4,2.37-1.19,3.25c-0.79,0.88-2.02,1.44-3.68,1.68c0.61,0.31,1.07,0.6,1.38,0.9c0.67,0.64,1.3,1.45,1.9,2.41l3.01,4.94
				h-2.88l-2.29-3.77c-0.67-1.09-1.22-1.92-1.65-2.5c-0.43-0.58-0.82-0.98-1.16-1.21c-0.34-0.23-0.69-0.39-1.04-0.48
				c-0.26-0.06-0.68-0.09-1.27-0.09h-2.66v8.05H171.4z M173.69,84.9h4.92c1.05,0,1.86-0.11,2.46-0.34s1.04-0.59,1.35-1.09
				c0.31-0.5,0.46-1.04,0.46-1.63c0-0.86-0.3-1.56-0.89-2.12c-0.59-0.55-1.53-0.83-2.82-0.83h-5.48V84.9z"/>
			<path class="st1" d="M195.06,95.04V79.04h-5.7V76.9h13.71v2.14h-5.72v15.99H195.06z"/>
			<path class="st1" d="M221.15,92.9c-0.7,0.82-1.46,1.43-2.29,1.84c-0.83,0.41-1.72,0.61-2.68,0.61c-1.77,0-3.17-0.63-4.21-1.88
				c-0.84-1.02-1.26-2.16-1.26-3.43c0-1.12,0.34-2.13,1.03-3.04c0.69-0.9,1.72-1.7,3.09-2.38c-0.78-0.94-1.3-1.7-1.56-2.29
				c-0.26-0.58-0.39-1.15-0.39-1.69c0-1.09,0.41-2.03,1.22-2.84c0.81-0.8,1.84-1.21,3.07-1.21c1.18,0,2.15,0.38,2.9,1.14
				c0.75,0.76,1.13,1.67,1.13,2.73c0,1.72-1.09,3.2-3.27,4.42l3.1,4.14c0.35-0.72,0.63-1.57,0.83-2.52l2.21,0.49
				c-0.38,1.58-0.89,2.89-1.53,3.91c0.79,1.1,1.7,2.03,2.7,2.78l-1.43,1.77C222.94,94.88,222.06,94.03,221.15,92.9z M219.81,91.14
				l-3.89-5.06c-1.15,0.72-1.92,1.38-2.33,2c-0.4,0.62-0.6,1.22-0.6,1.82c0,0.73,0.28,1.5,0.84,2.29c0.56,0.79,1.35,1.19,2.37,1.19
				c0.64,0,1.3-0.21,1.98-0.62C218.86,92.34,219.4,91.8,219.81,91.14z M216.83,83.44c0.92-0.57,1.52-1.07,1.79-1.5
				c0.27-0.43,0.41-0.9,0.41-1.42c0-0.62-0.19-1.12-0.56-1.52c-0.37-0.39-0.84-0.59-1.4-0.59c-0.57,0-1.05,0.19-1.43,0.58
				c-0.38,0.39-0.57,0.86-0.57,1.42c0,0.28,0.07,0.58,0.21,0.88c0.14,0.31,0.35,0.64,0.62,0.98L216.83,83.44z"/>
			<path class="st1" d="M232.59,89.89l2.07-0.3c0.06,1.39,0.3,2.33,0.74,2.85c0.44,0.51,1.05,0.77,1.83,0.77
				c0.57,0,1.07-0.14,1.49-0.41s0.7-0.65,0.86-1.13c0.16-0.47,0.24-1.23,0.24-2.27V76.9h2.29v12.36c0,1.52-0.18,2.69-0.53,3.52
				c-0.35,0.83-0.9,1.47-1.66,1.9c-0.76,0.44-1.65,0.66-2.67,0.66c-1.52,0-2.68-0.46-3.49-1.37
				C232.94,93.06,232.56,91.7,232.59,89.89z"/>
			<path class="st1" d="M247.72,95.04V76.9h12.51v2.14h-10.22v5.55h9.57v2.13h-9.57v6.17h10.62v2.14H247.72z"/>
			<path class="st1" d="M268.65,95.04l-4.59-18.13h2.35l2.63,11.89c0.28,1.25,0.53,2.48,0.73,3.71c0.44-1.94,0.7-3.06,0.78-3.35
				l3.29-12.25h2.76l2.48,9.18c0.62,2.28,1.07,4.42,1.35,6.42c0.22-1.15,0.51-2.46,0.86-3.95l2.71-11.65h2.3l-4.74,18.13h-2.21
				l-3.65-13.82c-0.31-1.15-0.49-1.86-0.54-2.13c-0.18,0.83-0.35,1.54-0.51,2.13l-3.67,13.82H268.65z"/>
			<path class="st1" d="M290.33,95.04V76.9h12.51v2.14h-10.22v5.55h9.57v2.13h-9.57v6.17h10.62v2.14H290.33z"/>
			<path class="st1" d="M308.14,95.04V76.9h2.29V92.9h8.52v2.14H308.14z"/>
			<path class="st1" d="M323.42,95.04V76.9h2.29V92.9h8.52v2.14H323.42z"/>
			<path class="st1" d="M338.83,95.04V76.9h12.51v2.14h-10.22v5.55h9.57v2.13h-9.57v6.17h10.62v2.14H338.83z"/>
			<path class="st1" d="M356.78,95.04V76.9h7.67c1.54,0,2.71,0.16,3.52,0.49c0.8,0.33,1.45,0.9,1.92,1.73
				c0.48,0.82,0.72,1.74,0.72,2.73c0,1.29-0.4,2.37-1.19,3.25c-0.8,0.88-2.02,1.44-3.68,1.68c0.61,0.31,1.07,0.6,1.38,0.9
				c0.67,0.64,1.3,1.45,1.9,2.41l3.01,4.94h-2.88l-2.29-3.77c-0.67-1.09-1.22-1.92-1.65-2.5c-0.43-0.58-0.82-0.98-1.16-1.21
				c-0.34-0.23-0.69-0.39-1.04-0.48c-0.26-0.06-0.68-0.09-1.27-0.09h-2.65v8.05H356.78z M359.07,84.9h4.92
				c1.05,0,1.86-0.11,2.46-0.34s1.04-0.59,1.35-1.09c0.31-0.5,0.46-1.04,0.46-1.63c0-0.86-0.3-1.56-0.89-2.12
				c-0.59-0.55-1.53-0.83-2.81-0.83h-5.48V84.9z"/>
			<path class="st1" d="M380.91,95.04v-7.68l-6.67-10.45h2.79l3.41,5.47c0.63,1.02,1.21,2.04,1.76,3.07
				c0.52-0.95,1.15-2.02,1.89-3.2l3.35-5.33h2.67l-6.91,10.45v7.68H380.91z"/>
		</g>
	</g>
</g>
</svg>
